<mxfile host="app.diagrams.net" agent="Mozilla/5.0 (Windows NT 10.0; Win64; x64) AppleWebKit/537.36 (KHTML, like Gecko) Chrome/138.0.0.0 Safari/537.36 OPR/122.0.0.0" version="28.2.5">
  <diagram name="Página-1" id="wBawkuGuO-FxkIq6h5D8">
    <mxGraphModel grid="1" page="1" gridSize="10" guides="1" tooltips="1" connect="1" arrows="0" fold="1" pageScale="1" pageWidth="827" pageHeight="1169" background="light-dark(#FFFFFF,#8A8A8A)" math="0" shadow="0">
      <root>
        <mxCell id="0" />
        <mxCell id="1" parent="0" />
        <mxCell id="HZw_BrIwqZaab9IpRSEP-1" value="Medicamento" style="whiteSpace=wrap;html=1;align=center;rounded=0;" vertex="1" parent="1">
          <mxGeometry x="70" y="100" width="100" height="40" as="geometry" />
        </mxCell>
        <mxCell id="HZw_BrIwqZaab9IpRSEP-2" value="Farmacia" style="whiteSpace=wrap;html=1;align=center;rounded=0;" vertex="1" parent="1">
          <mxGeometry x="464" y="100" width="100" height="40" as="geometry" />
        </mxCell>
        <mxCell id="HZw_BrIwqZaab9IpRSEP-3" value="Nombre" style="ellipse;whiteSpace=wrap;html=1;align=center;rounded=0;" vertex="1" parent="1">
          <mxGeometry x="120" y="10" width="50" height="30" as="geometry" />
        </mxCell>
        <mxCell id="HZw_BrIwqZaab9IpRSEP-4" value="Código" style="ellipse;whiteSpace=wrap;html=1;align=center;fontStyle=4;rounded=0;" vertex="1" parent="1">
          <mxGeometry x="70" y="10" width="50" height="30" as="geometry" />
        </mxCell>
        <mxCell id="HZw_BrIwqZaab9IpRSEP-5" value="Almacena" style="shape=rhombus;perimeter=rhombusPerimeter;whiteSpace=wrap;html=1;align=center;fillColor=light-dark(#000000, #e3c800);rounded=0;" vertex="1" parent="1">
          <mxGeometry x="250" y="150" width="90" height="45" as="geometry" />
        </mxCell>
        <mxCell id="HZw_BrIwqZaab9IpRSEP-6" value="Reserva" style="ellipse;whiteSpace=wrap;html=1;align=center;rounded=0;" vertex="1" parent="1">
          <mxGeometry x="270" y="215" width="50" height="30" as="geometry" />
        </mxCell>
        <mxCell id="HZw_BrIwqZaab9IpRSEP-7" value="Vendidas" style="ellipse;whiteSpace=wrap;html=1;align=center;dashed=1;rounded=0;" vertex="1" parent="1">
          <mxGeometry x="95" y="50" width="50" height="30" as="geometry" />
        </mxCell>
        <mxCell id="HZw_BrIwqZaab9IpRSEP-8" value="Precio" style="ellipse;whiteSpace=wrap;html=1;align=center;rounded=0;" vertex="1" parent="1">
          <mxGeometry x="145" y="40" width="50" height="30" as="geometry" />
        </mxCell>
        <mxCell id="HZw_BrIwqZaab9IpRSEP-9" value="Libre" style="ellipse;whiteSpace=wrap;html=1;align=center;rounded=0;" vertex="1" parent="1">
          <mxGeometry x="40" y="50" width="50" height="30" as="geometry" />
        </mxCell>
        <mxCell id="HZw_BrIwqZaab9IpRSEP-10" value="Tipo" style="ellipse;whiteSpace=wrap;html=1;align=center;rounded=0;" vertex="1" parent="1">
          <mxGeometry x="20" y="170" width="50" height="30" as="geometry" />
        </mxCell>
        <mxCell id="HZw_BrIwqZaab9IpRSEP-11" value="Laboratorio" style="whiteSpace=wrap;html=1;align=center;rounded=0;" vertex="1" parent="1">
          <mxGeometry x="464" y="300" width="100" height="40" as="geometry" />
        </mxCell>
        <mxCell id="HZw_BrIwqZaab9IpRSEP-12" value="Código" style="ellipse;whiteSpace=wrap;html=1;align=center;fontStyle=4;rounded=0;" vertex="1" parent="1">
          <mxGeometry x="467" y="410" width="50" height="30" as="geometry" />
        </mxCell>
        <mxCell id="HZw_BrIwqZaab9IpRSEP-13" value="Nombre" style="ellipse;whiteSpace=wrap;html=1;align=center;rounded=0;" vertex="1" parent="1">
          <mxGeometry x="537" y="375" width="50" height="30" as="geometry" />
        </mxCell>
        <mxCell id="HZw_BrIwqZaab9IpRSEP-14" value="Teléfono" style="ellipse;whiteSpace=wrap;html=1;align=center;rounded=0;" vertex="1" parent="1">
          <mxGeometry x="517" y="410" width="50" height="30" as="geometry" />
        </mxCell>
        <mxCell id="HZw_BrIwqZaab9IpRSEP-15" value="Dirección postal" style="ellipse;whiteSpace=wrap;html=1;align=center;rounded=0;" vertex="1" parent="1">
          <mxGeometry x="587" y="400" width="50" height="30" as="geometry" />
        </mxCell>
        <mxCell id="HZw_BrIwqZaab9IpRSEP-16" value="Fax" style="ellipse;whiteSpace=wrap;html=1;align=center;rounded=0;" vertex="1" parent="1">
          <mxGeometry x="447" y="375" width="50" height="30" as="geometry" />
        </mxCell>
        <mxCell id="HZw_BrIwqZaab9IpRSEP-18" value="&lt;font style=&quot;font-size: 10px;&quot;&gt;Nombre&lt;/font&gt;&lt;div&gt;&lt;font style=&quot;font-size: 10px;&quot;&gt;p. Contacto&lt;/font&gt;&lt;/div&gt;" style="ellipse;whiteSpace=wrap;html=1;align=center;rounded=0;" vertex="1" parent="1">
          <mxGeometry x="391" y="390" width="56" height="40" as="geometry" />
        </mxCell>
        <mxCell id="HZw_BrIwqZaab9IpRSEP-29" value="" style="endArrow=none;html=1;curved=1;" edge="1" parent="1" source="HZw_BrIwqZaab9IpRSEP-1" target="HZw_BrIwqZaab9IpRSEP-10">
          <mxGeometry width="50" height="50" relative="1" as="geometry">
            <mxPoint x="94.5" y="200" as="sourcePoint" />
            <mxPoint x="320" y="135" as="targetPoint" />
          </mxGeometry>
        </mxCell>
        <mxCell id="HZw_BrIwqZaab9IpRSEP-39" value="&lt;span style=&quot;background-color: rgb(0, 0, 0);&quot;&gt;&lt;font style=&quot;color: light-dark(rgb(0, 0, 0), rgb(0, 0, 0));&quot;&gt;Está en&lt;/font&gt;&lt;/span&gt;" style="endArrow=none;html=1;rounded=0;curved=1;exitX=1;exitY=0.5;exitDx=0;exitDy=0;entryX=0;entryY=0.5;entryDx=0;entryDy=0;" edge="1" parent="1" source="HZw_BrIwqZaab9IpRSEP-5" target="HZw_BrIwqZaab9IpRSEP-2">
          <mxGeometry relative="1" as="geometry">
            <mxPoint x="300" y="280" as="sourcePoint" />
            <mxPoint x="460" y="280" as="targetPoint" />
          </mxGeometry>
        </mxCell>
        <mxCell id="HZw_BrIwqZaab9IpRSEP-40" value="(1,M)" style="resizable=0;html=1;whiteSpace=wrap;align=right;verticalAlign=bottom;" connectable="0" vertex="1" parent="HZw_BrIwqZaab9IpRSEP-39">
          <mxGeometry x="1" relative="1" as="geometry" />
        </mxCell>
        <mxCell id="HZw_BrIwqZaab9IpRSEP-41" value="&lt;span style=&quot;background-color: rgb(0, 0, 0);&quot;&gt;&lt;font style=&quot;color: light-dark(rgb(0, 0, 0), rgb(0, 0, 0));&quot;&gt;Almacena&lt;/font&gt;&lt;/span&gt;" style="endArrow=none;html=1;rounded=0;curved=1;exitX=0;exitY=0.5;exitDx=0;exitDy=0;entryX=1;entryY=0.5;entryDx=0;entryDy=0;" edge="1" parent="1" source="HZw_BrIwqZaab9IpRSEP-5" target="HZw_BrIwqZaab9IpRSEP-1">
          <mxGeometry relative="1" as="geometry">
            <mxPoint x="310" y="130" as="sourcePoint" />
            <mxPoint x="324" y="70" as="targetPoint" />
          </mxGeometry>
        </mxCell>
        <mxCell id="HZw_BrIwqZaab9IpRSEP-42" value="(0,N)" style="resizable=0;html=1;whiteSpace=wrap;align=right;verticalAlign=bottom;" connectable="0" vertex="1" parent="HZw_BrIwqZaab9IpRSEP-41">
          <mxGeometry x="1" relative="1" as="geometry">
            <mxPoint x="40" y="10" as="offset" />
          </mxGeometry>
        </mxCell>
        <mxCell id="HZw_BrIwqZaab9IpRSEP-43" value="" style="endArrow=none;html=1;curved=1;entryX=0.5;entryY=1;entryDx=0;entryDy=0;exitX=0.5;exitY=0;exitDx=0;exitDy=0;" edge="1" parent="1" source="HZw_BrIwqZaab9IpRSEP-6" target="HZw_BrIwqZaab9IpRSEP-5">
          <mxGeometry width="50" height="50" relative="1" as="geometry">
            <mxPoint x="156" y="280" as="sourcePoint" />
            <mxPoint x="185" y="350" as="targetPoint" />
          </mxGeometry>
        </mxCell>
        <mxCell id="HZw_BrIwqZaab9IpRSEP-44" value="" style="endArrow=none;html=1;curved=1;entryX=0.75;entryY=0;entryDx=0;entryDy=0;" edge="1" parent="1" source="HZw_BrIwqZaab9IpRSEP-3" target="HZw_BrIwqZaab9IpRSEP-1">
          <mxGeometry width="50" height="50" relative="1" as="geometry">
            <mxPoint x="310" y="270" as="sourcePoint" />
            <mxPoint x="310" y="240" as="targetPoint" />
          </mxGeometry>
        </mxCell>
        <mxCell id="HZw_BrIwqZaab9IpRSEP-45" value="" style="endArrow=none;html=1;curved=1;entryX=1;entryY=0;entryDx=0;entryDy=0;" edge="1" parent="1" source="HZw_BrIwqZaab9IpRSEP-8" target="HZw_BrIwqZaab9IpRSEP-1">
          <mxGeometry width="50" height="50" relative="1" as="geometry">
            <mxPoint x="155" y="170" as="sourcePoint" />
            <mxPoint x="155" y="150" as="targetPoint" />
          </mxGeometry>
        </mxCell>
        <mxCell id="HZw_BrIwqZaab9IpRSEP-46" value="" style="endArrow=none;html=1;curved=1;" edge="1" parent="1" source="HZw_BrIwqZaab9IpRSEP-7" target="HZw_BrIwqZaab9IpRSEP-1">
          <mxGeometry width="50" height="50" relative="1" as="geometry">
            <mxPoint x="110" y="60" as="sourcePoint" />
            <mxPoint x="180" y="150" as="targetPoint" />
          </mxGeometry>
        </mxCell>
        <mxCell id="HZw_BrIwqZaab9IpRSEP-47" value="" style="endArrow=none;html=1;curved=1;entryX=0.25;entryY=0;entryDx=0;entryDy=0;" edge="1" parent="1" source="HZw_BrIwqZaab9IpRSEP-4" target="HZw_BrIwqZaab9IpRSEP-1">
          <mxGeometry width="50" height="50" relative="1" as="geometry">
            <mxPoint x="125" y="210" as="sourcePoint" />
            <mxPoint x="130" y="150" as="targetPoint" />
          </mxGeometry>
        </mxCell>
        <mxCell id="HZw_BrIwqZaab9IpRSEP-48" value="" style="endArrow=none;html=1;curved=1;entryX=0;entryY=0;entryDx=0;entryDy=0;" edge="1" parent="1" source="HZw_BrIwqZaab9IpRSEP-9" target="HZw_BrIwqZaab9IpRSEP-1">
          <mxGeometry width="50" height="50" relative="1" as="geometry">
            <mxPoint x="93" y="171" as="sourcePoint" />
            <mxPoint x="105" y="150" as="targetPoint" />
          </mxGeometry>
        </mxCell>
        <mxCell id="HZw_BrIwqZaab9IpRSEP-50" value="Obtención de medicamentos" style="shape=rhombus;perimeter=rhombusPerimeter;whiteSpace=wrap;html=1;align=center;fillColor=light-dark(#000000, #e3c800);rounded=0;" vertex="1" parent="1">
          <mxGeometry x="449.5" y="190" width="129" height="65" as="geometry" />
        </mxCell>
        <mxCell id="HZw_BrIwqZaab9IpRSEP-51" value="&lt;span style=&quot;background-color: rgb(0, 0, 0);&quot;&gt;&lt;font style=&quot;color: light-dark(rgb(0, 0, 0), rgb(0, 0, 0));&quot;&gt;Obtiene medicamentos&lt;/font&gt;&lt;/span&gt;" style="endArrow=none;html=1;rounded=0;curved=1;exitX=0.5;exitY=1;exitDx=0;exitDy=0;entryX=0.5;entryY=0;entryDx=0;entryDy=0;" edge="1" parent="1" source="HZw_BrIwqZaab9IpRSEP-50" target="HZw_BrIwqZaab9IpRSEP-11">
          <mxGeometry relative="1" as="geometry">
            <mxPoint x="500" y="365" as="sourcePoint" />
            <mxPoint x="664" y="205" as="targetPoint" />
            <mxPoint as="offset" />
          </mxGeometry>
        </mxCell>
        <mxCell id="HZw_BrIwqZaab9IpRSEP-52" value="(0,M)" style="resizable=0;html=1;whiteSpace=wrap;align=right;verticalAlign=bottom;" connectable="0" vertex="1" parent="HZw_BrIwqZaab9IpRSEP-51">
          <mxGeometry x="1" relative="1" as="geometry" />
        </mxCell>
        <mxCell id="HZw_BrIwqZaab9IpRSEP-53" value="&lt;font style=&quot;color: light-dark(rgb(0, 0, 0), rgb(0, 0, 0)); background-color: light-dark(rgb(237, 237, 237), rgb(255, 255, 255));&quot;&gt;Provee medicamentos&lt;/font&gt;" style="endArrow=none;html=1;rounded=0;curved=1;exitX=0.5;exitY=0;exitDx=0;exitDy=0;entryX=0.5;entryY=1;entryDx=0;entryDy=0;" edge="1" parent="1" source="HZw_BrIwqZaab9IpRSEP-50" target="HZw_BrIwqZaab9IpRSEP-2">
          <mxGeometry relative="1" as="geometry">
            <mxPoint x="510" y="215" as="sourcePoint" />
            <mxPoint x="370" y="205" as="targetPoint" />
            <mxPoint as="offset" />
          </mxGeometry>
        </mxCell>
        <mxCell id="HZw_BrIwqZaab9IpRSEP-54" value="(0,N)" style="resizable=0;html=1;whiteSpace=wrap;align=right;verticalAlign=bottom;" connectable="0" vertex="1" parent="HZw_BrIwqZaab9IpRSEP-53">
          <mxGeometry x="1" relative="1" as="geometry">
            <mxPoint x="35" y="20" as="offset" />
          </mxGeometry>
        </mxCell>
        <mxCell id="HZw_BrIwqZaab9IpRSEP-56" value="" style="endArrow=none;html=1;curved=1;entryX=0.5;entryY=0;entryDx=0;entryDy=0;exitX=0;exitY=1;exitDx=0;exitDy=0;" edge="1" parent="1" source="HZw_BrIwqZaab9IpRSEP-11" target="HZw_BrIwqZaab9IpRSEP-18">
          <mxGeometry width="50" height="50" relative="1" as="geometry">
            <mxPoint x="156" y="210" as="sourcePoint" />
            <mxPoint x="185" y="280" as="targetPoint" />
          </mxGeometry>
        </mxCell>
        <mxCell id="HZw_BrIwqZaab9IpRSEP-57" value="" style="endArrow=none;html=1;curved=1;entryX=0.5;entryY=0;entryDx=0;entryDy=0;exitX=0.5;exitY=1;exitDx=0;exitDy=0;" edge="1" parent="1" source="HZw_BrIwqZaab9IpRSEP-11" target="HZw_BrIwqZaab9IpRSEP-12">
          <mxGeometry width="50" height="50" relative="1" as="geometry">
            <mxPoint x="474" y="350" as="sourcePoint" />
            <mxPoint x="458" y="450" as="targetPoint" />
          </mxGeometry>
        </mxCell>
        <mxCell id="HZw_BrIwqZaab9IpRSEP-58" value="" style="endArrow=none;html=1;curved=1;entryX=0.5;entryY=0;entryDx=0;entryDy=0;exitX=0.5;exitY=1;exitDx=0;exitDy=0;" edge="1" parent="1" source="HZw_BrIwqZaab9IpRSEP-11" target="HZw_BrIwqZaab9IpRSEP-14">
          <mxGeometry width="50" height="50" relative="1" as="geometry">
            <mxPoint x="499" y="350" as="sourcePoint" />
            <mxPoint x="519" y="455" as="targetPoint" />
          </mxGeometry>
        </mxCell>
        <mxCell id="HZw_BrIwqZaab9IpRSEP-59" value="" style="endArrow=none;html=1;curved=1;entryX=0.5;entryY=0;entryDx=0;entryDy=0;exitX=1;exitY=1;exitDx=0;exitDy=0;" edge="1" parent="1" source="HZw_BrIwqZaab9IpRSEP-11" target="HZw_BrIwqZaab9IpRSEP-15">
          <mxGeometry width="50" height="50" relative="1" as="geometry">
            <mxPoint x="524" y="350" as="sourcePoint" />
            <mxPoint x="544" y="495" as="targetPoint" />
          </mxGeometry>
        </mxCell>
        <mxCell id="HZw_BrIwqZaab9IpRSEP-60" value="" style="endArrow=none;html=1;curved=1;entryX=0.5;entryY=0;entryDx=0;entryDy=0;exitX=0.75;exitY=1;exitDx=0;exitDy=0;" edge="1" parent="1" source="HZw_BrIwqZaab9IpRSEP-11" target="HZw_BrIwqZaab9IpRSEP-13">
          <mxGeometry width="50" height="50" relative="1" as="geometry">
            <mxPoint x="574" y="350" as="sourcePoint" />
            <mxPoint x="609" y="495" as="targetPoint" />
          </mxGeometry>
        </mxCell>
        <mxCell id="HZw_BrIwqZaab9IpRSEP-61" value="" style="endArrow=none;html=1;curved=1;entryX=0.5;entryY=0;entryDx=0;entryDy=0;exitX=0.25;exitY=1;exitDx=0;exitDy=0;" edge="1" parent="1" source="HZw_BrIwqZaab9IpRSEP-11" target="HZw_BrIwqZaab9IpRSEP-16">
          <mxGeometry width="50" height="50" relative="1" as="geometry">
            <mxPoint x="549" y="350" as="sourcePoint" />
            <mxPoint x="579" y="455" as="targetPoint" />
          </mxGeometry>
        </mxCell>
        <mxCell id="HZw_BrIwqZaab9IpRSEP-63" value="Fabricación" style="shape=rhombus;perimeter=rhombusPerimeter;whiteSpace=wrap;html=1;align=center;fillColor=light-dark(#000000, #e3c800);rounded=0;" vertex="1" parent="1">
          <mxGeometry x="298" y="50" width="93" height="45" as="geometry" />
        </mxCell>
        <mxCell id="HZw_BrIwqZaab9IpRSEP-64" value="" style="endArrow=none;html=1;rounded=0;curved=1;exitX=0;exitY=0.5;exitDx=0;exitDy=0;entryX=1;entryY=0;entryDx=0;entryDy=0;" edge="1" parent="1" source="HZw_BrIwqZaab9IpRSEP-63" target="HZw_BrIwqZaab9IpRSEP-1">
          <mxGeometry relative="1" as="geometry">
            <mxPoint x="656" y="255" as="sourcePoint" />
            <mxPoint x="670" y="190" as="targetPoint" />
            <mxPoint as="offset" />
          </mxGeometry>
        </mxCell>
        <mxCell id="HZw_BrIwqZaab9IpRSEP-65" value="(0,N)" style="resizable=0;html=1;whiteSpace=wrap;align=right;verticalAlign=bottom;" connectable="0" vertex="1" parent="HZw_BrIwqZaab9IpRSEP-64">
          <mxGeometry x="1" relative="1" as="geometry">
            <mxPoint x="28" y="-5" as="offset" />
          </mxGeometry>
        </mxCell>
        <mxCell id="EJuZxkBZC94gPnGKqUNi-2" value="Fabrica" style="edgeLabel;html=1;align=center;verticalAlign=middle;resizable=0;points=[];" connectable="0" vertex="1" parent="HZw_BrIwqZaab9IpRSEP-64">
          <mxGeometry x="0.0099" y="1" relative="1" as="geometry">
            <mxPoint as="offset" />
          </mxGeometry>
        </mxCell>
        <mxCell id="HZw_BrIwqZaab9IpRSEP-66" value="" style="endArrow=none;html=1;rounded=0;curved=1;exitX=1;exitY=0.5;exitDx=0;exitDy=0;entryX=1;entryY=0;entryDx=0;entryDy=0;" edge="1" parent="1" source="HZw_BrIwqZaab9IpRSEP-63" target="HZw_BrIwqZaab9IpRSEP-2">
          <mxGeometry relative="1" as="geometry">
            <mxPoint x="666" y="105" as="sourcePoint" />
            <mxPoint x="670" y="30" as="targetPoint" />
            <mxPoint as="offset" />
          </mxGeometry>
        </mxCell>
        <mxCell id="HZw_BrIwqZaab9IpRSEP-67" value="(1,M)" style="resizable=0;html=1;whiteSpace=wrap;align=right;verticalAlign=bottom;" connectable="0" vertex="1" parent="HZw_BrIwqZaab9IpRSEP-66">
          <mxGeometry x="1" relative="1" as="geometry">
            <mxPoint x="-2" y="-5" as="offset" />
          </mxGeometry>
        </mxCell>
        <mxCell id="EJuZxkBZC94gPnGKqUNi-1" value="Es fabricado" style="edgeLabel;html=1;align=center;verticalAlign=middle;resizable=0;points=[];" connectable="0" vertex="1" parent="HZw_BrIwqZaab9IpRSEP-66">
          <mxGeometry x="0.3636" y="4" relative="1" as="geometry">
            <mxPoint x="-33" y="-5" as="offset" />
          </mxGeometry>
        </mxCell>
        <mxCell id="JWxcVeHgscg0GQbvks92-13" value="Cliente" style="whiteSpace=wrap;html=1;align=center;rounded=0;" vertex="1" parent="1">
          <mxGeometry x="-360" y="100" width="120" height="40" as="geometry" />
        </mxCell>
        <mxCell id="JWxcVeHgscg0GQbvks92-14" value="Compra" style="shape=rhombus;perimeter=rhombusPerimeter;whiteSpace=wrap;html=1;align=center;fillColor=light-dark(#000000, #e3c800);rounded=0;" vertex="1" parent="1">
          <mxGeometry x="-120" y="95" width="90" height="50" as="geometry" />
        </mxCell>
        <mxCell id="JWxcVeHgscg0GQbvks92-15" value="&lt;span style=&quot;background-color: rgb(0, 0, 0);&quot;&gt;&lt;font style=&quot;color: light-dark(rgb(0, 0, 0), rgb(0, 0, 0));&quot;&gt;Compra&lt;/font&gt;&lt;/span&gt;" style="endArrow=none;html=1;rounded=0;curved=1;exitX=1;exitY=0.5;exitDx=0;exitDy=0;entryX=0;entryY=0.5;entryDx=0;entryDy=0;" edge="1" parent="1" source="JWxcVeHgscg0GQbvks92-14" target="HZw_BrIwqZaab9IpRSEP-1">
          <mxGeometry relative="1" as="geometry">
            <mxPoint x="-112" y="285" as="sourcePoint" />
            <mxPoint x="58" y="120" as="targetPoint" />
          </mxGeometry>
        </mxCell>
        <mxCell id="JWxcVeHgscg0GQbvks92-16" value="(1,N)" style="resizable=0;html=1;whiteSpace=wrap;align=right;verticalAlign=bottom;" connectable="0" vertex="1" parent="JWxcVeHgscg0GQbvks92-15">
          <mxGeometry x="1" relative="1" as="geometry" />
        </mxCell>
        <mxCell id="JWxcVeHgscg0GQbvks92-17" value="&lt;span style=&quot;background-color: rgb(0, 0, 0);&quot;&gt;&lt;font style=&quot;color: light-dark(rgb(0, 0, 0), rgb(0, 0, 0));&quot;&gt;Es comprado&lt;/font&gt;&lt;/span&gt;" style="endArrow=none;html=1;rounded=0;curved=1;exitX=0;exitY=0.5;exitDx=0;exitDy=0;entryX=1;entryY=0.5;entryDx=0;entryDy=0;" edge="1" parent="1" source="JWxcVeHgscg0GQbvks92-14" target="JWxcVeHgscg0GQbvks92-13">
          <mxGeometry relative="1" as="geometry">
            <mxPoint x="-102" y="135" as="sourcePoint" />
            <mxPoint x="-248" y="120" as="targetPoint" />
          </mxGeometry>
        </mxCell>
        <mxCell id="JWxcVeHgscg0GQbvks92-18" value="(1,M)" style="resizable=0;html=1;whiteSpace=wrap;align=right;verticalAlign=bottom;" connectable="0" vertex="1" parent="JWxcVeHgscg0GQbvks92-17">
          <mxGeometry x="1" relative="1" as="geometry">
            <mxPoint x="30" as="offset" />
          </mxGeometry>
        </mxCell>
        <mxCell id="JWxcVeHgscg0GQbvks92-19" value="" style="endArrow=none;html=1;curved=1;" edge="1" parent="1" source="JWxcVeHgscg0GQbvks92-20" target="JWxcVeHgscg0GQbvks92-14">
          <mxGeometry width="50" height="50" relative="1" as="geometry">
            <mxPoint x="-64" y="161" as="sourcePoint" />
            <mxPoint x="-227" y="355" as="targetPoint" />
          </mxGeometry>
        </mxCell>
        <mxCell id="JWxcVeHgscg0GQbvks92-20" value="Número" style="ellipse;whiteSpace=wrap;html=1;align=center;rounded=0;" vertex="1" parent="1">
          <mxGeometry x="-70" y="160" width="50" height="30" as="geometry" />
        </mxCell>
        <mxCell id="JWxcVeHgscg0GQbvks92-21" value="Fecha compra" style="ellipse;whiteSpace=wrap;html=1;align=center;rounded=0;" vertex="1" parent="1">
          <mxGeometry x="-120" y="160" width="50" height="30" as="geometry" />
        </mxCell>
        <mxCell id="JWxcVeHgscg0GQbvks92-23" value="" style="endArrow=none;html=1;curved=1;" edge="1" parent="1" source="JWxcVeHgscg0GQbvks92-14" target="JWxcVeHgscg0GQbvks92-21">
          <mxGeometry width="50" height="50" relative="1" as="geometry">
            <mxPoint x="-65" y="170" as="sourcePoint" />
            <mxPoint x="-65" y="155" as="targetPoint" />
          </mxGeometry>
        </mxCell>
        <mxCell id="JWxcVeHgscg0GQbvks92-26" value="Código" style="ellipse;whiteSpace=wrap;html=1;align=center;fontStyle=4;rounded=0;" vertex="1" parent="1">
          <mxGeometry x="-370" y="50" width="50" height="30" as="geometry" />
        </mxCell>
        <mxCell id="JWxcVeHgscg0GQbvks92-27" value="" style="endArrow=none;html=1;curved=1;" edge="1" parent="1" source="JWxcVeHgscg0GQbvks92-13" target="JWxcVeHgscg0GQbvks92-26">
          <mxGeometry width="50" height="50" relative="1" as="geometry">
            <mxPoint x="-43" y="171" as="sourcePoint" />
            <mxPoint x="-55" y="149" as="targetPoint" />
          </mxGeometry>
        </mxCell>
        <mxCell id="JWxcVeHgscg0GQbvks92-28" value="Crédito" style="ellipse;whiteSpace=wrap;html=1;align=center;rounded=0;" vertex="1" parent="1">
          <mxGeometry x="-430" y="165" width="50" height="30" as="geometry" />
        </mxCell>
        <mxCell id="JWxcVeHgscg0GQbvks92-29" value="" style="verticalLabelPosition=bottom;verticalAlign=top;html=1;shape=mxgraph.basic.acute_triangle;dx=0.51;rotation=-180;" vertex="1" parent="1">
          <mxGeometry x="-350" y="160" width="100" height="40" as="geometry" />
        </mxCell>
        <mxCell id="JWxcVeHgscg0GQbvks92-30" value="" style="endArrow=none;html=1;curved=1;" edge="1" parent="1">
          <mxGeometry width="50" height="50" relative="1" as="geometry">
            <mxPoint x="-355" y="200" as="sourcePoint" />
            <mxPoint x="-255" y="200" as="targetPoint" />
            <Array as="points">
              <mxPoint x="-300" y="230" />
            </Array>
          </mxGeometry>
        </mxCell>
        <mxCell id="JWxcVeHgscg0GQbvks92-31" value="" style="endArrow=none;html=1;curved=1;entryX=1;entryY=0.5;entryDx=0;entryDy=0;exitX=0;exitY=0;exitDx=75.5;exitDy=20;exitPerimeter=0;" edge="1" parent="1" source="JWxcVeHgscg0GQbvks92-29" target="JWxcVeHgscg0GQbvks92-28">
          <mxGeometry width="50" height="50" relative="1" as="geometry">
            <mxPoint x="-150" y="165" as="sourcePoint" />
            <mxPoint x="-100" y="115" as="targetPoint" />
          </mxGeometry>
        </mxCell>
        <mxCell id="JWxcVeHgscg0GQbvks92-32" value="Cliente sin crédito" style="whiteSpace=wrap;html=1;align=center;rounded=0;" vertex="1" parent="1">
          <mxGeometry x="-290" y="240" width="100" height="40" as="geometry" />
        </mxCell>
        <mxCell id="JWxcVeHgscg0GQbvks92-34" value="Cliente con crédito" style="whiteSpace=wrap;html=1;align=center;rounded=0;" vertex="1" parent="1">
          <mxGeometry x="-420" y="240" width="100" height="40" as="geometry" />
        </mxCell>
        <mxCell id="JWxcVeHgscg0GQbvks92-35" value="" style="endArrow=none;html=1;curved=1;exitX=0;exitY=0;exitDx=51;exitDy=0;exitPerimeter=0;" edge="1" parent="1" source="JWxcVeHgscg0GQbvks92-29" target="JWxcVeHgscg0GQbvks92-32">
          <mxGeometry width="50" height="50" relative="1" as="geometry">
            <mxPoint x="-290" y="200" as="sourcePoint" />
            <mxPoint x="-220" y="190" as="targetPoint" />
          </mxGeometry>
        </mxCell>
        <mxCell id="JWxcVeHgscg0GQbvks92-37" value="" style="endArrow=none;html=1;curved=1;exitX=0;exitY=0;exitDx=51;exitDy=0;exitPerimeter=0;" edge="1" parent="1" source="JWxcVeHgscg0GQbvks92-29" target="JWxcVeHgscg0GQbvks92-34">
          <mxGeometry width="50" height="50" relative="1" as="geometry">
            <mxPoint x="-265" y="190" as="sourcePoint" />
            <mxPoint x="-235" y="260" as="targetPoint" />
          </mxGeometry>
        </mxCell>
        <mxCell id="JWxcVeHgscg0GQbvks92-39" value="" style="endArrow=none;html=1;curved=1;" edge="1" parent="1" source="JWxcVeHgscg0GQbvks92-13" target="JWxcVeHgscg0GQbvks92-29">
          <mxGeometry width="50" height="50" relative="1" as="geometry">
            <mxPoint x="-264" y="190" as="sourcePoint" />
            <mxPoint x="-235" y="260" as="targetPoint" />
          </mxGeometry>
        </mxCell>
        <mxCell id="JWxcVeHgscg0GQbvks92-40" value="Datos bancarios" style="ellipse;whiteSpace=wrap;html=1;align=center;rounded=0;" vertex="1" parent="1">
          <mxGeometry x="-406" y="310" width="68" height="45" as="geometry" />
        </mxCell>
        <mxCell id="JWxcVeHgscg0GQbvks92-41" value="Número" style="ellipse;whiteSpace=wrap;html=1;align=center;rounded=0;" vertex="1" parent="1">
          <mxGeometry x="-452" y="370" width="46" height="30" as="geometry" />
        </mxCell>
        <mxCell id="JWxcVeHgscg0GQbvks92-42" value="Entidad" style="ellipse;whiteSpace=wrap;html=1;align=center;rounded=0;" vertex="1" parent="1">
          <mxGeometry x="-398" y="370" width="50" height="30" as="geometry" />
        </mxCell>
        <mxCell id="JWxcVeHgscg0GQbvks92-43" value="Sucursal" style="ellipse;whiteSpace=wrap;html=1;align=center;rounded=0;" vertex="1" parent="1">
          <mxGeometry x="-338" y="370" width="50" height="30" as="geometry" />
        </mxCell>
        <mxCell id="JWxcVeHgscg0GQbvks92-44" value="" style="endArrow=none;html=1;curved=1;" edge="1" parent="1" source="JWxcVeHgscg0GQbvks92-43" target="JWxcVeHgscg0GQbvks92-40">
          <mxGeometry width="50" height="50" relative="1" as="geometry">
            <mxPoint x="-259" y="205" as="sourcePoint" />
            <mxPoint x="-305" y="245" as="targetPoint" />
          </mxGeometry>
        </mxCell>
        <mxCell id="JWxcVeHgscg0GQbvks92-45" value="" style="endArrow=none;html=1;curved=1;" edge="1" parent="1" source="JWxcVeHgscg0GQbvks92-40" target="JWxcVeHgscg0GQbvks92-42">
          <mxGeometry width="50" height="50" relative="1" as="geometry">
            <mxPoint x="-317" y="383" as="sourcePoint" />
            <mxPoint x="-342" y="360" as="targetPoint" />
          </mxGeometry>
        </mxCell>
        <mxCell id="JWxcVeHgscg0GQbvks92-46" value="" style="endArrow=none;html=1;curved=1;" edge="1" parent="1" source="JWxcVeHgscg0GQbvks92-41" target="JWxcVeHgscg0GQbvks92-40">
          <mxGeometry width="50" height="50" relative="1" as="geometry">
            <mxPoint x="-362" y="365" as="sourcePoint" />
            <mxPoint x="-363" y="380" as="targetPoint" />
          </mxGeometry>
        </mxCell>
        <mxCell id="JWxcVeHgscg0GQbvks92-47" value="" style="endArrow=none;html=1;curved=1;exitX=0.5;exitY=1;exitDx=0;exitDy=0;" edge="1" parent="1" source="JWxcVeHgscg0GQbvks92-34" target="JWxcVeHgscg0GQbvks92-40">
          <mxGeometry width="50" height="50" relative="1" as="geometry">
            <mxPoint x="-438" y="388" as="sourcePoint" />
            <mxPoint x="-414" y="366" as="targetPoint" />
          </mxGeometry>
        </mxCell>
        <mxCell id="JWxcVeHgscg0GQbvks92-48" value="Fecha pago" style="ellipse;whiteSpace=wrap;html=1;align=center;rounded=0;" vertex="1" parent="1">
          <mxGeometry x="-100" y="30" width="50" height="30" as="geometry" />
        </mxCell>
        <mxCell id="JWxcVeHgscg0GQbvks92-49" value="" style="endArrow=none;html=1;curved=1;" edge="1" parent="1" source="JWxcVeHgscg0GQbvks92-14" target="JWxcVeHgscg0GQbvks92-48">
          <mxGeometry width="50" height="50" relative="1" as="geometry">
            <mxPoint x="-73" y="151" as="sourcePoint" />
            <mxPoint x="-80" y="170" as="targetPoint" />
          </mxGeometry>
        </mxCell>
        <mxCell id="JWxcVeHgscg0GQbvks92-50" value="Fecha pago solo se obtiene si el cliente es un cliente con crédito" style="shape=note;size=20;whiteSpace=wrap;html=1;" vertex="1" parent="1">
          <mxGeometry x="-240" y="5" width="130" height="75" as="geometry" />
        </mxCell>
        <mxCell id="JWxcVeHgscg0GQbvks92-54" value="Familia" style="whiteSpace=wrap;html=1;align=center;rounded=0;" vertex="1" parent="1">
          <mxGeometry x="70" y="300" width="100" height="40" as="geometry" />
        </mxCell>
        <mxCell id="JWxcVeHgscg0GQbvks92-62" value="Pertenece" style="shape=rhombus;perimeter=rhombusPerimeter;whiteSpace=wrap;html=1;align=center;fillColor=light-dark(#000000, #e3c800);rounded=0;" vertex="1" parent="1">
          <mxGeometry x="70" y="195" width="100" height="50" as="geometry" />
        </mxCell>
        <mxCell id="JWxcVeHgscg0GQbvks92-63" value="&lt;span style=&quot;background-color: rgb(0, 0, 0);&quot;&gt;&lt;font style=&quot;color: light-dark(rgb(0, 0, 0), rgb(0, 0, 0));&quot;&gt;Pertenece&lt;/font&gt;&lt;/span&gt;" style="endArrow=none;html=1;rounded=0;curved=1;exitX=0.5;exitY=1;exitDx=0;exitDy=0;entryX=0.5;entryY=0;entryDx=0;entryDy=0;" edge="1" parent="1" source="JWxcVeHgscg0GQbvks92-62" target="JWxcVeHgscg0GQbvks92-54">
          <mxGeometry relative="1" as="geometry">
            <mxPoint x="106" y="385" as="sourcePoint" />
            <mxPoint x="120" y="320" as="targetPoint" />
            <mxPoint as="offset" />
          </mxGeometry>
        </mxCell>
        <mxCell id="JWxcVeHgscg0GQbvks92-64" value="(1,M)" style="resizable=0;html=1;whiteSpace=wrap;align=right;verticalAlign=bottom;" connectable="0" vertex="1" parent="JWxcVeHgscg0GQbvks92-63">
          <mxGeometry x="1" relative="1" as="geometry" />
        </mxCell>
        <mxCell id="JWxcVeHgscg0GQbvks92-65" value="&lt;font style=&quot;color: light-dark(rgb(0, 0, 0), rgb(0, 0, 0)); background-color: light-dark(rgb(237, 237, 237), rgb(255, 255, 255));&quot;&gt;Contiene&lt;/font&gt;" style="endArrow=none;html=1;rounded=0;curved=1;exitX=0.5;exitY=0;exitDx=0;exitDy=0;entryX=0.5;entryY=1;entryDx=0;entryDy=0;" edge="1" parent="1" source="JWxcVeHgscg0GQbvks92-62" target="HZw_BrIwqZaab9IpRSEP-1">
          <mxGeometry relative="1" as="geometry">
            <mxPoint x="116" y="235" as="sourcePoint" />
            <mxPoint x="120" y="160" as="targetPoint" />
            <mxPoint as="offset" />
          </mxGeometry>
        </mxCell>
        <mxCell id="JWxcVeHgscg0GQbvks92-66" value="(1,N)" style="resizable=0;html=1;whiteSpace=wrap;align=right;verticalAlign=bottom;" connectable="0" vertex="1" parent="JWxcVeHgscg0GQbvks92-65">
          <mxGeometry x="1" relative="1" as="geometry">
            <mxPoint x="35" y="20" as="offset" />
          </mxGeometry>
        </mxCell>
        <mxCell id="8Qpdd9-xaKgjxqOOwY-B-1" value="Código" style="ellipse;whiteSpace=wrap;html=1;align=center;fontStyle=4;rounded=0;" vertex="1" parent="1">
          <mxGeometry x="40" y="360" width="50" height="30" as="geometry" />
        </mxCell>
        <mxCell id="8Qpdd9-xaKgjxqOOwY-B-4" value="" style="endArrow=none;html=1;curved=1;" edge="1" parent="1" source="8Qpdd9-xaKgjxqOOwY-B-1" target="JWxcVeHgscg0GQbvks92-54">
          <mxGeometry width="50" height="50" relative="1" as="geometry">
            <mxPoint x="107" y="150" as="sourcePoint" />
            <mxPoint x="69" y="183" as="targetPoint" />
          </mxGeometry>
        </mxCell>
        <mxCell id="8Qpdd9-xaKgjxqOOwY-B-5" value="" style="endArrow=none;html=1;curved=1;" edge="1" parent="1" source="8Qpdd9-xaKgjxqOOwY-B-8" target="JWxcVeHgscg0GQbvks92-54">
          <mxGeometry width="50" height="50" relative="1" as="geometry">
            <mxPoint x="130" y="370" as="sourcePoint" />
            <mxPoint x="130" y="350" as="targetPoint" />
          </mxGeometry>
        </mxCell>
        <mxCell id="8Qpdd9-xaKgjxqOOwY-B-8" value="Enfermedades aplicables" style="ellipse;shape=doubleEllipse;margin=3;whiteSpace=wrap;html=1;align=center;" vertex="1" parent="1">
          <mxGeometry x="110" y="360" width="100" height="40" as="geometry" />
        </mxCell>
        <mxCell id="8Qpdd9-xaKgjxqOOwY-B-9" value="Código" style="ellipse;whiteSpace=wrap;html=1;align=center;fontStyle=4;rounded=0;" vertex="1" parent="1">
          <mxGeometry x="610" y="105" width="50" height="30" as="geometry" />
        </mxCell>
        <mxCell id="8Qpdd9-xaKgjxqOOwY-B-10" value="" style="endArrow=none;html=1;curved=1;" edge="1" parent="1" source="8Qpdd9-xaKgjxqOOwY-B-9" target="HZw_BrIwqZaab9IpRSEP-2">
          <mxGeometry width="50" height="50" relative="1" as="geometry">
            <mxPoint x="88" y="372" as="sourcePoint" />
            <mxPoint x="110" y="350" as="targetPoint" />
          </mxGeometry>
        </mxCell>
        <mxCell id="EJuZxkBZC94gPnGKqUNi-3" value="Cantidad" style="ellipse;whiteSpace=wrap;html=1;align=center;rounded=0;" vertex="1" parent="1">
          <mxGeometry x="620" y="207.5" width="50" height="30" as="geometry" />
        </mxCell>
        <mxCell id="EJuZxkBZC94gPnGKqUNi-4" value="" style="endArrow=none;html=1;curved=1;" edge="1" parent="1" source="EJuZxkBZC94gPnGKqUNi-3" target="HZw_BrIwqZaab9IpRSEP-50">
          <mxGeometry width="50" height="50" relative="1" as="geometry">
            <mxPoint x="305" y="225" as="sourcePoint" />
            <mxPoint x="305" y="205" as="targetPoint" />
          </mxGeometry>
        </mxCell>
      </root>
    </mxGraphModel>
  </diagram>
</mxfile>
